<?xml version="1.0" encoding="UTF-8"?>
<svg version="1.1" xmlns="http://www.w3.org/2000/svg" width="510" height="507">
<path d="M0 0 C0.89539657 -0.00445784 1.79079314 -0.00891569 2.71332294 -0.01350862 C3.6929795 -0.01332426 4.67263606 -0.01313989 5.68197918 -0.01294994 C7.24778139 -0.01846498 7.24778139 -0.01846498 8.84521598 -0.02409142 C12.35425979 -0.03513276 15.86327399 -0.03897285 19.37233257 -0.04278088 C21.88370133 -0.04904507 24.39506916 -0.05569183 26.90643597 -0.0626936 C34.44954351 -0.08192089 41.99264585 -0.09252069 49.53577164 -0.10142139 C53.088798 -0.10580649 56.64182287 -0.11117264 60.19484806 -0.11641026 C72.00653588 -0.13341881 83.81822278 -0.14791363 95.62992096 -0.155159 C98.69379776 -0.15706885 101.75767455 -0.15898919 104.82155132 -0.16094494 C105.96380013 -0.16167055 105.96380013 -0.16167055 107.12912466 -0.16241082 C119.4687868 -0.17071367 131.80835208 -0.19605653 144.14797191 -0.22852562 C156.81896334 -0.26159473 169.48990553 -0.27960752 182.16094035 -0.28280324 C189.27445784 -0.28496822 196.38783397 -0.29371531 203.50130939 -0.31926441 C210.19161105 -0.34323843 216.88161425 -0.3467981 223.57196522 -0.33650303 C226.02818681 -0.3360064 228.48442074 -0.34236412 230.94060421 -0.35605907 C234.29260979 -0.37370414 237.64369426 -0.3667074 240.99569988 -0.35352612 C241.96866428 -0.36449536 242.94162867 -0.37546461 243.94407684 -0.38676625 C249.9853301 -0.32937231 253.61382874 0.53937569 258.52931499 4.13422108 C261.82863678 9.78494044 262.83455675 16.23056006 264.18165874 22.58343983 C264.43361004 23.74316807 264.68556133 24.90289631 264.94514751 26.09776783 C265.49840263 28.64922582 266.04903385 31.20109011 266.59532452 33.75403309 C267.48534825 37.91304761 268.38526334 42.06988647 269.28639507 46.22650623 C270.45159548 51.60487441 271.6140501 56.98382491 272.77350426 62.36343479 C275.3403623 74.27297778 277.92495783 86.17863444 280.51368999 98.08343983 C280.83288119 99.55138398 280.83288119 99.55138398 281.1585207 101.04898357 C282.0244852 105.03136607 282.89051501 109.01373435 283.75669098 112.99607086 C285.28101765 120.00440574 286.80421193 127.01298606 288.32692242 134.02167225 C294.99167861 164.69506213 301.66761288 195.36613078 308.50587749 226.00140858 C312.65734213 244.60119227 316.74117744 263.2152805 320.78582287 281.83857441 C321.20810213 283.78163012 321.63124223 285.72449868 322.05440044 287.66736317 C323.64502767 294.97368919 325.21506118 302.28399138 326.76753521 309.59851551 C327.53591333 313.1648464 328.33668654 316.72284416 329.1411314 320.28119373 C329.63195169 322.53021667 330.12205646 324.77939592 330.61134624 327.02875233 C330.85068386 328.04958408 331.09002148 329.07041584 331.33661175 330.12218189 C333.00387296 337.97226385 333.00387296 337.97226385 331.58668804 342.07831287 C329.10653932 345.7621887 326.50143361 347.40789097 322.52931499 349.13422108 C321.88206463 349.41911396 321.23481426 349.70400684 320.56795025 349.99753284 C318.46818676 350.87981117 316.35370502 351.70424002 314.22462749 352.51312733 C313.44306286 352.81296024 312.66149822 353.11279316 311.85624981 353.42171192 C303.46617698 356.59970301 294.96486729 359.39292688 286.40431499 362.07172108 C285.18408138 362.45532795 285.18408138 362.45532795 283.93919659 362.84668446 C231.04391188 379.41644634 176.93365244 387.85933699 121.52931499 389.13422108 C120.7632896 389.15226795 119.99726421 389.17031483 119.20802593 389.18890858 C114.97757455 389.27424295 110.75928367 389.23102633 106.52931499 389.13422108 C105.65968121 389.11633533 104.79004742 389.09844959 103.89406109 389.08002186 C31.78197672 387.44301182 -60.98392231 374.91235621 -123.47068501 336.13422108 C-125.57725984 332.97435882 -126.03625864 330.98749996 -125.93015766 327.2118578 C-125.0565353 323.26152502 -122.16598949 321.18952242 -119.15818501 318.69672108 C-118.5217104 318.13887928 -117.88523579 317.58103748 -117.22947407 317.00629139 C-115.33108896 315.35506709 -113.40805927 313.73941564 -111.47068501 312.13422108 C-110.47166157 311.30277576 -109.47263813 310.47133045 -108.44334126 309.61468983 C-106.65663743 308.15097694 -104.86256021 306.69620912 -103.06052876 305.25140858 C-99.528008 302.36358618 -96.16226868 299.30851312 -92.78709126 296.23968983 C-88.33456593 292.19262212 -83.78797446 288.25658337 -79.21287251 284.34906483 C-78.00711824 283.31914629 -76.80138978 282.28919755 -75.59568501 281.25922108 C-74.98716694 280.73956776 -74.37864887 280.21991444 -73.75169086 279.68451405 C-70.21444643 276.65529575 -66.72675923 273.58273525 -63.28318501 270.44672108 C-59.99126295 267.45503947 -56.62477193 264.60897685 -53.15818501 261.82172108 C-48.34483064 257.93166176 -43.8230705 253.80550273 -39.30955219 249.57855701 C-35.09675359 245.65543514 -30.70673149 242.01525693 -26.21677876 238.41156483 C-23.20749543 235.91595718 -20.33128214 233.29658627 -17.47068501 230.63422108 C-13.76206813 227.18260171 -9.98562605 223.8689996 -6.03318501 220.69672108 C-1.84831194 217.33075842 2.11245897 213.80246091 6.02931499 210.13422108 C10.78676878 205.67873909 15.68749537 201.50288742 20.77150249 197.41937733 C24.90930474 193.99074516 28.82602606 190.33529195 32.76759624 186.68500233 C37.34102439 182.46088836 42.0460218 178.3998986 46.77931499 174.35687733 C47.9877404 173.324433 49.19607118 172.29187791 50.40431499 171.25922108 C51.31407085 170.48167469 51.31407085 170.48167469 52.24220562 169.6884203 C56.66106908 165.90200963 61.00608174 162.04180299 65.31837749 158.13422108 C74.43014902 149.89177051 83.84494946 141.98067123 93.19337749 134.00922108 C99.30564427 128.79211844 105.36284909 123.53081639 111.31837749 118.13422108 C120.43014902 109.89177051 129.84494946 101.98067123 139.19337749 94.00922108 C145.3014463 88.7957016 151.35388119 83.53731722 157.30665874 78.14593983 C162.35282662 73.57867014 167.48198929 69.15845812 172.77931499 64.88422108 C177.94488987 60.68584816 182.83757983 56.24946603 187.72072124 51.73187733 C190.18431875 49.45330662 192.65394685 47.18484446 195.15431499 44.94672108 C195.76533062 44.39629139 196.37634624 43.8458617 197.00587749 43.27875233 C198.52931499 42.13422108 198.52931499 42.13422108 200.52931499 42.13422108 C200.52931499 41.47422108 200.52931499 40.81422108 200.52931499 40.13422108 C198.96333443 40.13836915 198.96333443 40.13836915 197.36571789 40.14260101 C171.96013811 40.20920746 146.55456967 40.25850208 121.14892101 40.28965759 C108.86292702 40.30512473 96.57699071 40.3262114 84.29103374 40.36053944 C73.58227071 40.39044638 62.87354945 40.4097972 52.16474581 40.41648656 C46.49481916 40.4203966 40.82501204 40.42958272 35.15512371 40.45141125 C29.81672832 40.47179675 24.47850153 40.47805065 19.14007092 40.47354412 C17.18255223 40.47436839 15.22502782 40.48032167 13.26754284 40.4918375 C10.59014953 40.50681388 7.91338869 40.50315595 5.23598003 40.49498463 C4.46552931 40.50372315 3.69507859 40.51246168 2.90128088 40.521465 C-4.53544313 40.46032513 -11.01279461 38.43617174 -16.47068501 33.13422108 C-20.261147 27.71927537 -21.16093815 22.71627789 -20.47068501 16.13422108 C-18.15403229 9.30009556 -15.01062306 4.4041901 -8.47068501 1.13422108 C-5.58825341 0.25922246 -3.00596501 0.00696103 0 0 Z M231.52931499 67.13422108 C231.10263531 67.51191639 230.67595562 67.8896117 230.23634624 68.27875233 C225.99984136 72.00862364 221.71776358 75.68125605 217.40431499 79.32172108 C196.6209632 96.85002609 196.6209632 96.85002609 176.27931499 114.88422108 C172.98638534 117.8728536 169.61614731 120.71805713 166.15431499 123.50922108 C162.14107389 126.75372868 158.30495546 130.12148788 154.52931499 133.63422108 C149.90026449 137.94093924 145.114651 141.97823091 140.18947124 145.94672108 C136.64004708 148.86548398 133.24516479 151.93786547 129.84572124 155.02875233 C125.39319592 159.07582003 120.84660445 163.01185878 116.27150249 166.91937733 C110.02655866 172.25313719 103.82673462 177.61896219 97.74025249 183.13422108 C93.31503012 187.1372491 88.80878131 191.04416289 84.27150249 194.91937733 C78.02655866 200.25313719 71.82673462 205.61896219 65.74025249 211.13422108 C61.31503012 215.1372491 56.80878131 219.04416289 52.27150249 222.91937733 C46.02795803 228.25194199 39.82973182 233.61680535 33.74415874 239.13031483 C27.76447234 244.54050729 21.62091022 249.74936154 15.4524107 254.94183826 C12.04510066 257.82058915 8.70256258 260.75508475 5.40431499 263.75922108 C2.13463299 266.73499908 -1.2055783 269.56065268 -4.65818501 272.32172108 C-9.98887877 276.62699143 -14.93944732 281.26751344 -19.91380024 285.97186756 C-24.4000596 290.19291806 -29.03684915 294.13845036 -33.84959126 297.98578358 C-37.65657939 301.10626566 -41.26213992 304.43140931 -44.87693501 307.77093983 C-47.87356363 310.50130175 -50.96623026 313.09952552 -54.10740376 315.66156483 C-55.8103502 317.16667044 -55.8103502 317.16667044 -55.47068501 320.13422108 C-12.57830879 334.45854752 31.35440299 344.77606983 76.52931499 348.13422108 C77.269398 348.19206776 78.00948101 348.24991444 78.77199078 348.30951405 C107.22573652 350.43896382 136.13672375 349.64966651 164.52931499 347.13422108 C165.57845074 347.04301991 166.62758648 346.95181873 167.70851421 346.85785389 C208.55437447 343.11293828 248.93485719 332.7261823 287.52931499 319.13422108 C286.82980337 310.13534247 284.73523619 301.44369109 282.76759624 292.65765858 C282.38074774 290.91404109 281.9943186 289.17033051 281.60827923 287.4265337 C280.57278742 282.75450675 279.53153339 278.08378135 278.48923016 273.41327 C277.40430232 268.5467119 276.32500076 263.67890645 275.24513531 258.81122303 C272.87730609 248.14249976 270.5022145 237.47540172 268.12523937 226.80871296 C267.20728339 222.68895225 266.28989373 218.5690655 265.37257671 214.44916248 C265.20514713 213.6972082 265.03771755 212.94525393 264.86521435 212.17051315 C263.31508518 205.20840277 261.76528051 198.24622022 260.21599865 191.28392124 C259.77795997 189.31563238 259.33977011 187.34737722 258.90156841 185.37912464 C255.86749323 171.74660145 252.843306 158.11345076 249.96681499 144.44672108 C249.72326275 143.29002918 249.4797105 142.13333729 249.22877789 140.94159412 C248.97217388 139.72254383 248.71556988 138.50349354 248.45118999 137.24750233 C246.00753478 125.64066479 243.55089722 114.0366231 241.06528854 102.43869591 C240.31701654 98.94620028 239.57186329 95.4531048 238.83421612 91.95834827 C238.00619154 88.03578253 237.16477553 84.11620514 236.32228374 80.19672108 C236.07049358 78.99432285 235.81870342 77.79192463 235.55928326 76.5530901 C235.32147137 75.45708988 235.08365948 74.36108967 234.83864117 73.23187733 C234.63325222 72.26773914 234.42786327 71.30360096 234.21625042 70.31024647 C233.87621738 69.2331139 233.87621738 69.2331139 233.52931499 68.13422108 C232.86931499 67.80422108 232.20931499 67.47422108 231.52931499 67.13422108 Z " fill="#FDFDFD" transform="translate(150.470685005188,75.86577892303467)"/>
<path d="M0 0 C5.13353447 3.20100989 8.04020546 6.35813565 10.41796875 11.90625 C11.40792656 16.52456454 11.56413678 21.03864092 11.55841064 25.74238586 C11.56138177 26.51295372 11.56435289 27.28352157 11.56741405 28.07743996 C11.57605935 30.64970093 11.57760574 33.22191513 11.57910156 35.79418945 C11.58373263 37.64251809 11.58875768 39.49084578 11.59414673 41.33917236 C11.60724348 46.35372389 11.61371017 51.36826205 11.61815739 56.382828 C11.62109204 59.51770917 11.62519756 62.65258671 11.62966156 65.78746605 C11.64332828 75.60174108 11.65299941 85.41600778 11.65686345 95.23029166 C11.66134464 106.54878554 11.67889887 117.86715867 11.70786405 129.18561584 C11.72949409 137.94249541 11.73956841 146.69934104 11.74090457 155.45624703 C11.74195149 160.68289251 11.74783556 165.90942436 11.76572418 171.13604164 C11.78222807 176.05347751 11.78434909 180.9707146 11.77558517 185.88816833 C11.77481609 187.6888501 11.77914052 189.48954267 11.78904343 191.29019737 C11.89346839 211.46739225 11.89346839 211.46739225 6.5859375 218.24609375 C0.45200785 223.19437231 -4.46998171 225.73120419 -12.58203125 224.90625 C-18.24334438 223.13109249 -22.35727495 221.06586008 -25.58203125 215.90625 C-25.93874216 215.35853313 -26.29545307 214.81081627 -26.6629734 214.24650192 C-27.99328435 210.85905165 -27.86420081 207.54824775 -27.84945679 203.96221924 C-27.85625346 202.75274443 -27.85625346 202.75274443 -27.86318743 201.51883578 C-27.87586026 198.81360591 -27.8742092 196.10857661 -27.87255859 193.40332031 C-27.87854212 191.4649937 -27.88534726 189.52666947 -27.89291382 187.58834839 C-27.91060085 182.31960838 -27.91527039 177.05093331 -27.91654539 171.78216648 C-27.91844382 167.38368186 -27.92580088 162.98521238 -27.93288958 158.58673358 C-27.94918212 148.20755417 -27.95405782 137.82840947 -27.95263672 127.44921875 C-27.95143568 116.7451166 -27.97252815 106.04121622 -28.00412405 95.33716512 C-28.03028575 86.14636768 -28.04100403 76.95563613 -28.0397259 67.76480174 C-28.03921615 62.27600311 -28.04490634 56.78738366 -28.066082 51.29862213 C-28.08546197 46.1341101 -28.08559035 40.96994819 -28.07104874 35.80542374 C-28.06895911 33.91240807 -28.07367067 32.01937052 -28.08576965 30.12639236 C-28.10124697 27.53659047 -28.091898 24.94799202 -28.07650757 22.35821533 C-28.09193826 21.2416505 -28.09193826 21.2416505 -28.10768068 20.10252881 C-28.02495253 13.77779968 -25.96672835 8.60890672 -21.765625 3.84765625 C-21.18941406 3.39261719 -20.61320312 2.93757813 -20.01953125 2.46875 C-19.44074219 1.99566406 -18.86195312 1.52257812 -18.265625 1.03515625 C-13.1020655 -2.42718411 -5.58003924 -2.363708 0 0 Z " fill="#FDFDFD" transform="translate(46.58203125,123.09375)"/>
<path d="M0 0 C1.56572897 1.19836538 3.10942328 2.42630453 4.625 3.6875 C5.27210937 4.22246094 5.91921875 4.75742188 6.5859375 5.30859375 C15.95848825 13.84211703 21.23088215 27.01682761 22.0078125 39.50390625 C22.60330921 56.53219936 18.44882735 69.83249444 7.375 82.9375 C-0.35454228 91.18493456 -9.64761554 95.99740282 -20.91796875 97.00390625 C-35.66473856 97.46991019 -46.87867922 92.95484424 -57.5625 82.9375 C-68.81990969 71.1205769 -72.50306136 56.63113969 -72.375 40.6875 C-71.26432342 24.10668531 -63.41607555 11.45931503 -51.13671875 0.703125 C-36.02897523 -10.3231772 -15.43481527 -10.35205133 0 0 Z " fill="#FDFDFD" transform="translate(78.375,8.3125)"/>
</svg>
